<?xml version="1.0" encoding="UTF-8" standalone="no"?>
<!-- Created with Inkscape (http://www.inkscape.org/) -->

<svg
   version="1.1"
   id="svg1"
   width="1274.9906"
   height="205"
   viewBox="0 0 1274.9906 205"
   xmlns="http://www.w3.org/2000/svg"
   xmlns:svg="http://www.w3.org/2000/svg">
  <defs
     id="defs1" />
  <path
     id="rect2"
     style="fill:#ffffff;stroke-width:0.529606"
     d="m 951.2158,14.06021 293.8719,-3.74064 -63.5909,109.43852 -282.6499,-5.84475 z" />
  <path
     style="fill:#e1060a"
     d="m 873.2829,204.88309 -3.7829,-0.1169 -11.5,-1.33685 -11.5,-1.33685 -30,-3.02131 -30,-3.0213 -31,-2.47567 -31,-2.47568 -15,-1.04721 -15,-1.04721 -26.5,-1.49929 -26.5,-1.49928 -18,-0.99426 -18,-0.99425 -24.5,-0.99563 -24.5,-0.99563 -26,-1.03348 -26,-1.03348 -32.5,-1.0174 -32.5,-1.01741 -107.5,-0.596 -107.5,-0.59601 -48.5,1.13968 -48.5,1.13967 -10.5,0.44772 -10.5,0.44771 18.5,-1.86461 18.5,-1.86461 24,-1.59604 24,-1.59604 29.5,-1.47185 29.5,-1.47184 25.5,-1.00426 25.5,-1.00425 41.5,-0.98367 41.5,-0.98366 55,-0.61324 55,-0.61324 68.5,1.06191 68.5,1.06191 29,1.02074 29,1.02074 24.5,1.0065 24.5,1.0065 35.5,1.51468 35.5,1.51469 33.5,1.97064 33.5,1.97064 8.5,0.61009 8.5,0.61008 31,0.64571 31,0.64571 -25,7.88863 -25,7.88864 -14.2171,4.36136 L 877.0659,205 Z M 0.5,185 H 0 V 184.5 184 H 0.5 1 v 0.5 0.5 z m 4.14319,-1 H 3.66667 L 4.08333,183.5863 4.5,183.17261 25,179.12234 45.5,175.07206 67,171.57103 88.5,168.07 l 14,-1.98704 14,-1.98704 17.5,-2.06434 17.5,-2.06434 7.5,-0.94149 7.5,-0.94149 15.5,-1.54389 15.5,-1.54389 25.5,-2.436 25.5,-2.436 13,-1.04638 13,-1.04638 13.5,-1.01287 13.5,-1.01286 26,-1.49242 26,-1.49242 25.5,-0.9958 25.5,-0.9958 30,-1.2557 30,-1.2557 128,0.004 128,0.004 40,1.24253 40,1.24254 13.5,0.5339 13.5,0.53391 19.5,0.94188 19.5,0.94187 35,1.15089 35,1.15089 62.5,-0.46693 62.5,-0.46692 -3.5,0.88786 -3.5,0.88787 -28.5,9.36819 -28.5,9.36819 -13.6852,4.07842 -13.6852,4.07841 -2.8148,-1.09831 -2.8148,-1.09832 -29.5,-0.82956 -29.5,-0.82956 -43.5,-2.53669 -43.5,-2.53669 -33,-1.50822 -33,-1.50821 -24.5,-1.02446 -24.5,-1.02446 -39,-1.22994 -39,-1.22995 -125,-0.0103 -125,-0.0103 -33.5,1.26934 -33.5,1.26933 -38.5,1.97983 -38.5,1.97982 -15.5,0.99475 -15.5,0.99474 -14.5,1.02377 -14.5,1.02378 -18,1.43872 -18,1.43872 -12.5,1.08087 -12.5,1.08086 -33,3.46829 -33,3.46829 L 25.05986,182.0178 5.61972,184 Z M 27.25,154.52876 17,157.77365 v -0.36439 -0.3644 L 46.06596,99.02243 75.13191,41 H 99.56596 124 v 0.51998 0.51998 L 119.5,51 115,59.96004 v 1.11496 1.11496 l 22.75,-0.45105 22.75,-0.45106 3.61763,-1.15438 3.61763,-1.15438 3.34521,-2.25434 3.34521,-2.25433 2.9272,-4.16489 2.92719,-4.16489 0.47318,-4.92451 0.47319,-4.92451 -1.1939,-2.23082 -1.1939,-2.23083 -4.16932,-1.89302 -4.16932,-1.89303 -44.85699,-0.022 -44.85699,-0.022 0.50743,-1.25 0.50742,-1.25 5.77371,-12.28661 5.7737,-12.28661 60.07586,0.30439 60.07586,0.30439 6.13697,2.28585 6.13696,2.28585 3.6217,3.62171 3.62171,3.6217 1.03975,3.86135 1.03975,3.86135 -1.47139,5.74343 -1.4714,5.74342 -4.12361,9.37061 -4.12361,9.3706 -3.62858,5.46668 -3.62858,5.46669 -4.57483,3.3925 -4.57484,3.39249 -6,2.8919 -6,2.8919 -8,1.72919 -8,1.7292 -0.26258,0.21493 -0.26259,0.21492 3.87654,6.90409 3.87654,6.90408 10.78889,19.5 10.78889,19.5 1.93814,3.26525 1.93814,3.26525 -29.21722,-0.26525 L 153.74753,137.5 139.62376,110.23269 125.5,82.96539 115.13276,83.23269 104.76552,83.5 l -13.43743,26.80236 -13.43743,26.80237 -1.19533,0.362 -1.19533,0.36201 -19,6.72756 -19,6.72756 z m 991.9508,-22.58087 -160.7008,-0.0521 5.06305,-1.94804 5.06305,-1.94805 2.5877,-2.74985 2.5876,-2.74985 22.7829,-46.5 22.7828,-46.5 3.7656,-5.62026 3.7656,-5.62025 4.551,-4.00597 4.551,-4.00596 6.7499,-3.5386 L 949.5,3.17037 955.6443,1.58518 961.7887,0 h 156.6009 156.601 l -4.0688,7.75 -4.0688,7.75 -24.1322,47 -24.1321,47 -6.7066,6.6702 -6.7065,6.67019 -7.3378,3.48283 -7.3378,3.48283 -5.2992,1.09698 -5.2992,1.09697 z m -37,-19.01835 47.7008,0.0705 5.2992,-1.10508 5.2992,-1.10509 6.1866,-2.91573 6.1866,-2.91573 4.3134,-4.825 4.3134,-4.825 9.6431,-20.40419 9.643,-20.40418 -0.452,-0.75 -0.4521,-0.75 h -35.821 -35.821 l -3.9781,9.25 -3.9781,9.25 14.3342,0.2766 14.3342,0.27659 -2.6205,5.34311 -2.6205,5.3431 -2.7599,1.6303 -2.7599,1.6303 H 996.5957 975 l -2,-2 -2,-2 0.07,-1.75 0.07,-1.75 8.6803,-16.97188 8.6803,-16.97187 5.9245,-3.02813 5.9245,-3.02812 22.3255,-0.31874 L 1045,37.86252 V 39.93126 42 h 19.4858 19.4859 l 6.3718,-13.25 6.3719,-13.25 -0.7035,-0.7958 -0.7035,-0.79581 -57.9042,0.30362 -57.9042,0.30362 -8,2.71812 -8,2.71812 -5.1201,3.46318 -5.1202,3.46317 -3.5234,4.81089 -3.5235,4.81089 -12.6619,26 -12.662,26 -1.0252,4.74024 -1.0252,4.74025 1.1038,3.34481 1.1039,3.34481 2.7567,2.64105 2.7567,2.64105 3.9702,1.45343 3.9702,1.45344 z M 1120.5018,113 h 23.5019 l 17.7416,-35.5 17.7416,-35.5 h 21.3178 21.3179 l 6.318,-13.25 6.318,-13.25 -0.6865,-0.75725 -0.6866,-0.75726 -65.7153,0.25726 -65.7153,0.25725 -6.0408,12.85331 -6.0408,12.85332 0.6458,0.64668 0.6458,0.64669 h 20.2945 20.2946 L 1114.377,76.24444 1097,110.98889 V 111.99444 113 Z M 264.56084,119.89955 221.5,119.7991 l -3.96688,-0.92899 -3.96688,-0.92898 -2.30503,-2.16546 -2.30503,-2.16547 -0.79705,-3.0551 -0.79705,-3.0551 0.82387,-4.43796 0.82387,-4.43795 9.34904,-20.06205 9.34904,-20.06204 4.38803,-10 4.38803,-10 4.10117,-4.11947 4.10117,-4.11946 5.87322,-2.19745 5.87321,-2.19746 4.92013,-0.93308 L 266.27298,24 h 42.4705 42.4705 l -0.49245,1.25 -0.49245,1.25 -4.79443,10.25 L 340.64022,47 H 307.33268 274.02514 L 270.51257,53.97504 267,60.95007 V 61.47504 62 h 31.5 31.5 v 0.9853 0.98531 L 325.77714,72.4853 321.55429,81 H 289.48546 257.41664 L 254.70832,86.52215 252,92.04431 v 1.40642 1.40641 l 1.57143,1.57143 L 255.14286,98 h 31.35141 31.35142 l -5.112,11 -5.11201,11 z M 356.70885,120 h -38.84363 l 0.642,-2.02276 0.642,-2.02275 9.53245,-20.22725 9.53246,-20.22724 6.7312,-14.5 6.7312,-14.5 5.30832,-11.25 5.30833,-11.25 43.60341,0.0174 43.60341,0.0174 6.86357,1.45417 6.86356,1.45417 4.25631,2.49436 4.25631,2.49436 1.63012,3.43523 L 475,38.80233 v 3.63041 3.63042 l -2.04539,6.07163 -2.04538,6.07164 -8.76572,18.14682 -8.76571,18.14682 -5.58008,6 -5.58007,6 -6.85883,3.67415 -6.85882,3.67415 -8,2.02308 -8,2.02308 -8.47377,1.05277 L 395.55247,120 Z M 381.7899,98 h 14.7899 l 5.92268,-1.54266 5.92267,-1.54266 4.29198,-2.70734 4.29198,-2.70734 2.82274,-4 2.82274,-4 4.58182,-10.5 4.58183,-10.5 0.61634,-2.11792 0.61635,-2.11792 -1.00054,-2.63162 -1.00054,-2.63162 -3.27492,-1.99672 -3.27493,-1.99672 -17.15574,-0.004 -17.15575,-0.004 -3.22425,6.75 -3.22426,6.75 -8.37,17.86193 L 367,96.22334 V 97.11193 98 Z M 507.90088,119.35719 500.5,119.71438 483,119.10719 465.5,118.5 l -2.33466,-1.33049 -2.33466,-1.33049 -1.35091,-3.23318 -1.35091,-3.23319 0.88844,-3.93632 0.88844,-3.93633 13.39414,-28 13.39413,-28 5.0916,-10.75 5.0916,-10.75 H 516.9386 537 v 0.70351 0.70352 L 520,59.97111 503,94.5352 v 1.25954 1.25954 l 32.00056,-0.27714 32.00056,-0.27714 -0.25056,0.65709 -0.25056,0.6571 -5,10.54456 -5,10.54456 -20.59912,0.0483 L 515.30176,119 Z M 584.75,119.34187 565,119.93849 v -0.97996 -0.97996 L 580.29319,85.73928 595.58638,53.5 602.54319,38.79071 609.5,24.08142 629.75,24.04071 650,24 v 0.42943 0.42943 l -4.38022,9.32057 -4.38022,9.32057 -12.47119,25.50268 -12.4712,25.50268 -5.28827,11.49732 -5.28828,11.49732 -0.61031,0.62263 -0.61031,0.62262 z m 48.75,0.0626 -10,0.14577 -2.25,-0.34467 -2.25,-0.34466 v -0.30493 -0.30493 l 15.07182,-31.87552 15.07181,-31.87552 5.742,-12 5.74199,-12 1.43619,-3.27043 1.43619,-3.27042 17.89074,0.27042 17.89075,0.27043 4.4996,7.5 4.49961,7.5 9.0701,14.5 9.07009,14.5 2.73904,4.98379 2.73904,4.98379 4.60445,-9.98379 4.60444,-9.98379 8.18271,-17.25 8.1827,-17.25 h 18.21488 18.21488 l -4.82533,10.25 -4.82532,10.25 -16.98201,35 -16.98201,35 -0.71157,2.25 -0.71157,2.25 h -16.77796 -16.77797 l -8.97272,-14.75 -8.97272,-14.75 L 689.93192,77.29052 682.5,65.08102 681.95486,65.04052 681.40972,65 668.45486,91.9905 655.5,118.98099 l -6,0.13885 -6,0.13885 z m 184,0.4399 -34,0.0316 -3.22495,-0.80654 -3.22495,-0.80655 -2.51112,-1.64535 -2.51113,-1.64534 -1.64844,-2.51585 -1.64845,-2.51585 0.50718,-6.22023 0.50719,-6.22022 5.01926,-11 5.01926,-11 8.15491,-18 8.15491,-18 3.70316,-3.8364 3.70317,-3.8364 4.5591,-2.33371 4.5591,-2.33371 7.64874,-1.57989 L 827.91568,24 h 40.10955 40.10957 l -0.6428,2.02535 -0.6429,2.02535 -4.4817,9.46106 -4.4818,9.46106 -32.69278,0.26359 L 832.5,47.5 828.70117,54.75 824.90235,62 H 856.95117 889 v 0.57865 0.57866 L 884.855,72.07865 880.7099,81 h -32.41026 -32.41029 l -2.50882,5.48 -2.50883,5.48 1.32724,2.77 1.32725,2.77 31.16204,0.26414 31.16207,0.26414 -4.4252,9.46952 -4.4251,9.46952 v 0.87257 0.87256 l -7.75,0.55017 -7.75,0.55016 z"
     id="path11" />
  <path
     style="fill:#090908"
     d="M 0.5,185 H 0 V 184.5 184 H 0.5 1 v 0.5 0.5 z m 4.14319,-1 H 3.66667 L 4.08333,183.5863 4.5,183.17261 25,179.12234 45.5,175.07206 67,171.57103 88.5,168.07 l 14,-1.98704 14,-1.98704 17.5,-2.06434 17.5,-2.06434 7.5,-0.94149 7.5,-0.94149 15.5,-1.54389 15.5,-1.54389 25.5,-2.436 25.5,-2.436 13,-1.04638 13,-1.04638 13.5,-1.01287 13.5,-1.01286 26,-1.49242 26,-1.49242 25.5,-0.9958 25.5,-0.9958 30,-1.2557 30,-1.2557 128,0.004 128,0.004 40,1.24253 40,1.24254 13.5,0.5339 13.5,0.53391 19.5,0.94188 19.5,0.94187 35,1.1485 35,1.14849 61.2515,-0.4648 61.2516,-0.46481 -0.2516,0.24689 -0.2515,0.24689 -11,3.60644 -11,3.60644 -17.0462,2.41682 -17.0463,2.41683 -19.4537,3.55119 -19.4538,3.55119 -8.5,1.51484 -8.5,1.51484 -15.2654,1.20138 -15.2655,1.20138 -50.23455,-2.73072 -50.23455,-2.73073 -31,-1.42816 -31,-1.42817 -25,-1.03904 -25,-1.03904 -39,-1.23207 -39,-1.23208 -125,-0.0103 -125,-0.0103 -33.5,1.26934 -33.5,1.26933 -38.5,1.97983 -38.5,1.97982 -15.5,0.99475 -15.5,0.99474 -14.5,1.02377 -14.5,1.02378 -18,1.43872 -18,1.43872 -12.5,1.08087 -12.5,1.08086 -33,3.46829 -33,3.46829 L 25.05986,182.0178 5.61972,184 Z M 1019.2008,131.94789 858.5,131.89579 l 5.06305,-1.94804 5.06305,-1.94805 2.5877,-2.74985 2.5876,-2.74985 22.7829,-46.5 22.7828,-46.5 3.7656,-5.62026 3.7656,-5.62025 4.551,-4.00597 4.551,-4.00596 6.7499,-3.5386 L 949.5,3.17037 955.6443,1.58518 961.7887,0 h 156.6009 156.601 l -4.0688,7.75 -4.0688,7.75 -24.1322,47 -24.1321,47 -6.7066,6.6702 -6.7065,6.67019 -7.3378,3.48283 -7.3378,3.48283 -5.2992,1.09698 -5.2992,1.09697 z m -37,-19.01835 47.7008,0.0705 5.2992,-1.10508 5.2992,-1.10509 6.1866,-2.91573 6.1866,-2.91573 4.3134,-4.825 4.3134,-4.825 9.6431,-20.40419 9.643,-20.40418 -0.452,-0.75 -0.4521,-0.75 h -35.821 -35.821 l -3.9781,9.25 -3.9781,9.25 14.3342,0.2766 14.3342,0.27659 -2.6205,5.34311 -2.6205,5.3431 -2.7599,1.6303 -2.7599,1.6303 H 996.5957 975 l -2,-2 -2,-2 0.07,-1.75 0.07,-1.75 8.6803,-16.97188 8.6803,-16.97187 5.9245,-3.02813 5.9245,-3.02812 22.3255,-0.31874 L 1045,37.86252 V 39.93126 42 h 19.4858 19.4859 l 6.3718,-13.25 6.3719,-13.25 -0.7035,-0.7958 -0.7035,-0.79581 -57.9042,0.30362 -57.9042,0.30362 -8,2.71812 -8,2.71812 -5.1201,3.46318 -5.1202,3.46317 -3.5234,4.81089 -3.5235,4.81089 -12.6619,26 -12.662,26 -1.0252,4.74024 -1.0252,4.74025 1.1038,3.34481 1.1039,3.34481 2.7567,2.64105 2.7567,2.64105 3.9702,1.45343 3.9702,1.45344 z M 1120.5018,113 h 23.5019 l 17.7416,-35.5 17.7416,-35.5 h 21.3178 21.3179 l 6.318,-13.25 6.318,-13.25 -0.6865,-0.75725 -0.6866,-0.75726 -65.7153,0.25726 -65.7153,0.25725 -6.0408,12.85331 -6.0408,12.85332 0.6458,0.64668 0.6458,0.64669 h 20.2945 20.2946 L 1114.377,76.24444 1097,110.98889 V 111.99444 113 Z"
     id="path9" />
  <path
     d="M 0.5,185 H 0 V 184.5 184 H 0.5 1 v 0.5 0.5 z m 4.14319,-1 H 3.66667 L 4.08333,183.5863 4.5,183.17261 25,179.12234 45.5,175.07206 67,171.57103 88.5,168.07 l 14,-1.98704 14,-1.98704 17.5,-2.06434 17.5,-2.06434 7.5,-0.94149 7.5,-0.94149 15.5,-1.54389 15.5,-1.54389 25.5,-2.436 25.5,-2.436 13,-1.04638 13,-1.04638 13.5,-1.01287 13.5,-1.01286 26,-1.49242 26,-1.49242 25.5,-0.9958 25.5,-0.9958 30,-1.2557 30,-1.2557 128,0.004 128,0.004 40,1.24253 40,1.24254 13.5,0.5339 13.5,0.53391 19.5,0.94188 19.5,0.94187 35,1.1485 35,1.14849 91.8773,-0.69721 30.6258,-0.2324 2.4969,5.5e-4 -2.9269,0.8293 -11.0731,3.27037 -11,3.60644 -15.889,5.30982 -17.129,7.29361 -26.5098,6.32019 -6.8426,2.03921 -5.6296,-2.19663 -22.54615,-0.45287 -11.54582,-0.53442 -14.43893,-0.41044 -10.4691,-0.26139 -90,-5.20006 -31,-1.42816 -31,-1.42817 -25,-1.03904 -25,-1.03904 -39,-1.23207 -39,-1.23208 -125,-0.0103 -125,-0.0103 -33.5,1.26934 -33.5,1.26933 -38.5,1.97983 -38.5,1.97982 -15.5,0.99475 -15.5,0.99474 -14.5,1.02377 -14.5,1.02378 -18,1.43872 -18,1.43872 -12.5,1.08087 -12.5,1.08086 -33,3.46829 -33,3.46829 L 25.05986,182.0178 5.61972,184 Z"
     id="path2"
     style="fill:#ffffff" />
  <path
     style="fill:#000000;fill-rule:nonzero;stroke:none"
     d="M 0.5,183.89868 H 0 L 1.1013216,185 V 184.5 184 L 0,185.10132 H 0.5 1 L -0.1013216,184 v 0.5 0.5 L 1,183.89868 Z m 0,2.20264 H 1 A 1.1013216,1.1013216 0 0 0 2.1013216,185 V 184.5 184 A 1.1013216,1.1013218 0 0 0 1,182.89868 H 0.5 0 A 1.1013216,1.1013217 0 0 0 -1.1013216,184 v 0.5 0.5 A 1.1013216,1.1013216 0 0 0 0,186.10132 Z m 4.14319,-3.20264 H 3.66667 l 0.775971,1.88284 0.41666,-0.4137 0.1805547,-0.17926 20.1735703,-3.98578 20.481866,-4.04669 21.481714,-3.49806 21.488895,-3.49922 13.988829,-1.98545 13.98718,-1.98522 17.48711,-2.06282 17.5,-2.06434 7.50815,-0.94248 7.48602,-0.93974 15.48597,-1.54249 15.5,-1.54389 25.49557,-2.43557 25.49182,-2.43522 12.99181,-1.04572 13,-1.04638 13.49404,-1.01241 13.49036,-1.01213 25.9903,-1.49187 25.98999,-1.49184 25.48992,-0.99541 25.5,-0.9958 30.00297,-1.25582 29.97708,-1.25474 127.97695,0.004 127.98291,0.004 39.98293,1.242 40,1.24254 13.49067,0.53357 13.5,0.53391 19.49039,0.94146 19.49992,0.94187 a 1.1737608,0.67853982 32.356136 0 0 0.0171,6.9e-4 l 35,1.1485 35,1.14849 a 1.1013216,1.1013216 45.721856 0 0 0.0445,5.6e-4 l 91.87734,-0.69721 30.6258,-0.2324 2.4883,5.8e-4 -0.3,-2.16093 -2.9269,0.8293 a 1.1013218,1.1013217 28.86349 0 0 -0.012,0.003 l -11.0731,3.27037 a 1.1013216,1.1013216 27.698793 0 0 -0.031,0.01 l -11,3.60644 -15.895,5.31179 a 1.1013216,1.1013216 24.226262 0 0 -0.082,0.0312 l -17.0434,7.25717 -26.41931,6.29862 a 1.1013216,1.1013216 30.001196 0 0 -0.0591,0.0159 l -6.48011,1.93118 -5.27722,-2.05913 a 1.1013216,1.1013216 56.188108 0 0 -0.37821,-0.0751 l -22.53174,-0.45258 -11.53143,-0.53375 a 1.1013216,1.1013216 47.139008 0 0 -0.0196,-7.4e-4 l -14.43893,-0.41044 -10.45487,-0.26104 -89.98199,-5.19902 a 1.1013216,1.1013217 47.971887 0 0 -0.0128,-6.6e-4 l -31,-1.42816 -30.99987,-1.42817 -25.00508,-1.03926 -25,-1.03904 a 1.1013216,1.1013217 47.09535 0 0 -0.011,-4e-4 l -39,-1.23207 -39,-1.23208 a 1.1013216,1.1013216 45.903996 0 0 -0.0347,-5.5e-4 l -125,-0.0103 -124.99951,-0.0103 a 1.1738731,0.6603186 28.288234 0 0 -0.0423,7.9e-4 l -33.5,1.26934 -33.5,1.26933 a 1.1013216,1.1013216 42.44442 0 0 -0.0149,6.6e-4 l -38.5,1.97983 -38.49985,1.97981 a 0.77894644,0.21514725 12.136256 0 0 -0.0141,8.2e-4 l -15.5,0.99475 -15.5,0.99474 -14.50704,1.02424 -14.5,1.02378 a 1.1013215,1.1013215 40.694505 0 0 -0.0102,7.7e-4 l -18,1.43872 -18,1.43872 -12.50713,1.08146 -12.49995,1.08086 a 1.1953696,0.92421206 32.240159 0 0 -0.0203,0.002 l -33.000005,3.46829 -33,3.46829 -19.436731,1.98166 -19.3844366,1.97652 z m 0,2.20264 h 0.97653 a 1.1013216,1.1013216 42.084186 0 0 0.1117162,-0.006 l 19.4401398,-1.9822 19.44013,-1.98201 33.00328,-3.46863 32.990014,-3.46724 12.48988,-1.07998 12.5,-1.08087 17.9928,-1.43812 17.99498,-1.43832 14.49491,-1.02342 14.5,-1.02377 15.49296,-0.99427 15.49302,-0.9943 38.49301,-1.97946 38.49257,-1.97945 33.49244,-1.26904 33.47924,-1.26856 124.9791,0.0103 124.98265,0.0103 38.98266,1.23153 38.99452,1.2319 24.99443,1.03881 25.0001,1.03904 30.99505,1.42795 30.99357,1.42787 89.99358,5.19969 a 1.1013216,1.1013216 47.367988 0 0 0.036,0.001 l 10.4691,0.26139 14.42531,0.41006 11.53601,0.53396 a 1.1013216,1.1013216 46.902096 0 0 0.0288,9.6e-4 l 22.35037,0.44894 5.44717,2.12544 a 1.1012962,1.1014281 47.362925 0 0 0.7149,0.0295 l 6.81322,-2.03046 26.48001,-6.31308 a 1.1013216,1.1013216 26.765892 0 0 0.1761,-0.058 l 17.0884,-7.27634 15.8471,-5.29582 10.9786,-3.5994 11.0516,-3.26402 2.921,-0.82764 a 1.1013216,1.1013216 38.931808 0 0 -0.3,-2.16093 l -2.4969,-5.5e-4 -30.6344,0.23243 -91.85501,0.69704 -34.97777,-1.14776 -34.99149,-1.14822 -19.4915,-0.94146 -19.5,-0.94188 -13.50961,-0.53433 -13.49997,-0.5339 -40.00936,-1.24287 -40,-1.24253 a 1.1013216,1.1013216 45.901633 0 0 -0.0342,-5.3e-4 l -128,-0.004 -128,-0.004 a 1.1013216,1.1013216 43.807262 0 0 -0.0461,9.6e-4 l -30,1.2557 -30,1.2557 -25.49691,0.99568 -25.49996,0.9958 a 1.1966382,0.91728516 34.712556 0 0 -0.0202,9.7e-4 l -26,1.49242 -26,1.49242 a 1.1013216,1.1013216 41.208967 0 0 -0.0193,0.001 l -13.5,1.01286 -13.5,1.01287 -13.00596,1.04684 -12.99998,1.04638 a 1.184574,0.96440612 34.121622 0 0 -0.0164,0.001 l -25.5,2.436 -25.5,2.436 -15.50443,1.54432 -15.49994,1.54389 a 1.1751545,0.99421849 33.812243 0 0 -0.0281,0.003 l -7.5,0.94149 -7.5,0.94149 -17.49185,2.06335 -17.5,2.06434 a 1.1013216,1.1013216 37.580973 0 0 -0.0257,0.003 l -14,1.98704 -14.000001,1.98704 a 1.1013216,1.1013216 36.341203 0 0 -0.02225,0.003 l -21.5,3.50103 -21.5,3.50103 a 1.1013216,1.1013216 34.785582 0 0 -0.03646,0.007 l -20.5,4.05028 -20.4999992,4.05027 a 1.1013216,1.1013216 17.004938 0 0 -0.562486,0.2989 l -0.41667,0.41369 -0.4166788,0.41372 a 1.1013216,1.1013216 31.717474 0 0 0.775971,1.88284 z"
     id="path1" />
</svg>
