<?xml version="1.0" encoding="UTF-8" standalone="no"?>
<!-- Created with Inkscape (http://www.inkscape.org/) -->

<svg
   version="1.1"
   id="svg1"
   width="1536"
   height="1024"
   viewBox="0 0 1536 1024"
   sodipodi:docname="redline_logo_iso1_bicolor_white.svg"
   inkscape:version="1.4.3 (0d15f75, 2025-12-25)"
   xmlns:inkscape="http://www.inkscape.org/namespaces/inkscape"
   xmlns:sodipodi="http://sodipodi.sourceforge.net/DTD/sodipodi-0.dtd"
   xmlns="http://www.w3.org/2000/svg"
   xmlns:svg="http://www.w3.org/2000/svg">
  <sodipodi:namedview
     id="namedview1"
     pagecolor="#ffffff"
     bordercolor="#000000"
     borderopacity="0.25"
     inkscape:showpageshadow="2"
     inkscape:pageopacity="0.0"
     inkscape:pagecheckerboard="0"
     inkscape:deskcolor="#d1d1d1"
     inkscape:zoom="1.0693359"
     inkscape:cx="768.23379"
     inkscape:cy="512"
     inkscape:window-width="2880"
     inkscape:window-height="1514"
     inkscape:window-x="-11"
     inkscape:window-y="-11"
     inkscape:window-maximized="1"
     inkscape:current-layer="svg1" />
  <defs
     id="defs1" />
  <path
     style="fill:#e1060a"
     d="m 1004.2829,589.88309 -3.7829,-0.1169 -11.5,-1.33685 -11.5,-1.33685 -30,-3.02131 -30,-3.0213 -31,-2.47567 -31,-2.47568 -15,-1.04721 -15,-1.04721 -26.5,-1.49929 -26.5,-1.49928 -18,-0.99426 -18,-0.99425 -24.5,-0.99563 -24.5,-0.99563 -26,-1.03348 -26,-1.03348 -32.5,-1.0174 -32.5,-1.01741 -107.5,-0.596 -107.5,-0.59601 -48.5,1.13968 -48.5,1.13967 -10.5,0.44772 -10.5,0.44771 18.5,-1.86461 18.5,-1.86461 24,-1.59604 24,-1.59604 29.5,-1.47185 29.5,-1.47184 25.5,-1.00426 25.5,-1.00425 41.5,-0.98367 41.5,-0.98366 55,-0.61324 55,-0.61324 68.5,1.06191 68.5,1.06191 29,1.02074 29,1.02074 24.5,1.0065 24.5,1.0065 35.5,1.51468 35.5,1.51469 33.5,1.97064 33.5,1.97064 8.5,0.61009 8.5,0.61008 31,0.64571 31,0.64571 -25,7.88863 -25,7.88864 -14.2171,4.36136 L 1008.0659,590 Z M 131.5,570 H 131 v -0.5 -0.5 h 0.5 0.5 v 0.5 0.5 z m 4.14319,-1 h -0.97652 l 0.41666,-0.4137 0.41667,-0.41369 20.5,-4.05027 20.5,-4.05028 21.5,-3.50103 21.5,-3.50103 14,-1.98704 14,-1.98704 17.5,-2.06434 17.5,-2.06434 7.5,-0.94149 7.5,-0.94149 15.5,-1.54389 15.5,-1.54389 25.5,-2.436 25.5,-2.436 13,-1.04638 13,-1.04638 13.5,-1.01287 13.5,-1.01286 26,-1.49242 26,-1.49242 25.5,-0.9958 25.5,-0.9958 30,-1.2557 30,-1.2557 128,0.004 128,0.004 40,1.24253 40,1.24254 13.5,0.5339 13.5,0.53391 19.5,0.94188 19.5,0.94187 35,1.15089 35,1.15089 62.5,-0.46693 62.5,-0.46692 -3.5,0.88786 -3.5,0.88787 -28.5,9.36819 -28.5,9.36819 -13.6852,4.07842 -13.6852,4.07841 -2.8148,-1.09831 -2.8148,-1.09832 -29.5,-0.82956 -29.5,-0.82956 -43.5,-2.53669 -43.5,-2.53669 -33,-1.50822 -33,-1.50821 -24.5,-1.02446 -24.5,-1.02446 -39,-1.22994 -39,-1.22995 -125,-0.0103 -125,-0.0103 -33.5,1.26934 -33.5,1.26933 -38.5,1.97983 -38.5,1.97982 -15.5,0.99475 -15.5,0.99474 -14.5,1.02377 -14.5,1.02378 -18,1.43872 -18,1.43872 -12.5,1.08087 -12.5,1.08086 -33,3.46829 -33,3.46829 -19.44014,1.98201 L 136.61972,569 Z M 158.25,539.52876 148,542.77365 v -0.36439 -0.3644 L 177.06596,484.02243 206.13191,426 H 230.56596 255 v 0.51998 0.51998 L 250.5,436 246,444.96004 v 1.11496 1.11496 l 22.75,-0.45105 22.75,-0.45106 3.61763,-1.15438 3.61763,-1.15438 3.34521,-2.25434 3.34521,-2.25433 2.9272,-4.16489 2.92719,-4.16489 0.47318,-4.92451 0.47319,-4.92451 -1.1939,-2.23082 -1.1939,-2.23083 -4.16932,-1.89302 -4.16932,-1.89303 -44.85699,-0.022 -44.85699,-0.022 0.50743,-1.25 0.50742,-1.25 5.77371,-12.28661 5.7737,-12.28661 60.07586,0.30439 60.07586,0.30439 6.13697,2.28585 6.13696,2.28585 3.6217,3.62171 3.62171,3.6217 1.03975,3.86135 1.03975,3.86135 -1.47139,5.74343 -1.4714,5.74342 -4.12361,9.37061 -4.12361,9.3706 -3.62858,5.46668 -3.62858,5.46669 -4.57483,3.3925 -4.57484,3.39249 -6,2.8919 -6,2.8919 -8,1.72919 -8,1.7292 -0.26258,0.21493 -0.26259,0.21492 3.87654,6.90409 3.87654,6.90408 10.78889,19.5 10.78889,19.5 1.93814,3.26525 1.93814,3.26525 -29.21722,-0.26525 L 284.74753,522.5 270.62376,495.23269 256.5,467.96539 l -10.36724,0.2673 -10.36724,0.26731 -13.43743,26.80236 -13.43743,26.80237 -1.19533,0.362 -1.19533,0.36201 -19,6.72756 -19,6.72756 z m 991.9508,-22.58087 -160.7008,-0.0521 5.06305,-1.94804 5.06305,-1.94805 2.5877,-2.74985 2.5876,-2.74985 22.7829,-46.5 22.7828,-46.5 3.7656,-5.62026 3.7656,-5.62025 4.551,-4.00597 4.551,-4.00596 6.7499,-3.5386 6.7498,-3.53859 6.1443,-1.58519 6.1444,-1.58518 h 156.6009 156.601 l -4.0688,7.75 -4.0688,7.75 -24.1322,47 -24.1321,47 -6.7066,6.6702 -6.7065,6.67019 -7.3378,3.48283 -7.3378,3.48283 -5.2992,1.09698 -5.2992,1.09697 z m -37,-19.01835 47.7008,0.0705 5.2992,-1.10508 5.2992,-1.10509 6.1866,-2.91573 6.1866,-2.91573 4.3134,-4.825 4.3134,-4.825 9.6431,-20.40419 9.643,-20.40418 -0.452,-0.75 -0.4521,-0.75 h -35.821 -35.821 l -3.9781,9.25 -3.9781,9.25 14.3342,0.2766 14.3342,0.27659 -2.6205,5.34311 -2.6205,5.3431 -2.7599,1.6303 -2.7599,1.6303 H 1127.5957 1106 l -2,-2 -2,-2 0.07,-1.75 0.07,-1.75 8.6803,-16.97188 8.6803,-16.97187 5.9245,-3.02813 5.9245,-3.02812 22.3255,-0.31874 L 1176,422.86252 V 424.93126 427 h 19.4858 19.4859 l 6.3718,-13.25 6.3719,-13.25 -0.7035,-0.7958 -0.7035,-0.79581 -57.9042,0.30362 -57.9042,0.30362 -8,2.71812 -8,2.71812 -5.1201,3.46318 -5.1202,3.46317 -3.5234,4.81089 -3.5235,4.81089 -12.6619,26 -12.662,26 -1.0252,4.74024 -1.0252,4.74025 1.1038,3.34481 1.1039,3.34481 2.7567,2.64105 2.7567,2.64105 3.9702,1.45343 3.9702,1.45344 z M 1251.5018,498 h 23.5019 l 17.7416,-35.5 17.7416,-35.5 h 21.3178 21.3179 l 6.318,-13.25 6.318,-13.25 -0.6865,-0.75725 -0.6866,-0.75726 -65.7153,0.25726 -65.7153,0.25725 -6.0408,12.85331 -6.0408,12.85332 0.6458,0.64668 0.6458,0.64669 h 20.2945 20.2946 L 1245.377,461.24444 1228,495.98889 V 496.99444 498 Z M 395.56084,504.89955 352.5,504.7991 l -3.96688,-0.92899 -3.96688,-0.92898 -2.30503,-2.16546 -2.30503,-2.16547 -0.79705,-3.0551 -0.79705,-3.0551 0.82387,-4.43796 0.82387,-4.43795 9.34904,-20.06205 9.34904,-20.06204 4.38803,-10 4.38803,-10 4.10117,-4.11947 4.10117,-4.11946 5.87322,-2.19745 5.87321,-2.19746 4.92013,-0.93308 L 397.27298,409 h 42.4705 42.4705 l -0.49245,1.25 -0.49245,1.25 -4.79443,10.25 -4.79443,10.25 h -33.30754 -33.30754 l -3.51257,6.97504 L 398,445.95007 V 446.47504 447 h 31.5 31.5 v 0.9853 0.98531 l -4.22286,8.51469 -4.22285,8.5147 h -32.06883 -32.06882 l -2.70832,5.52215 L 383,477.04431 v 1.40642 1.40641 l 1.57143,1.57143 1.57143,1.57143 h 31.35141 31.35142 l -5.112,11 -5.11201,11 z M 487.70885,505 h -38.84363 l 0.642,-2.02276 0.642,-2.02275 9.53245,-20.22725 9.53246,-20.22724 6.7312,-14.5 6.7312,-14.5 5.30832,-11.25 5.30833,-11.25 43.60341,0.0174 43.60341,0.0174 6.86357,1.45417 6.86356,1.45417 4.25631,2.49436 4.25631,2.49436 1.63012,3.43523 1.63013,3.43524 v 3.63041 3.63042 l -2.04539,6.07163 -2.04538,6.07164 -8.76572,18.14682 -8.76571,18.14682 -5.58008,6 -5.58007,6 -6.85883,3.67415 -6.85882,3.67415 -8,2.02308 -8,2.02308 -8.47377,1.05277 -8.47376,1.0527 z m 25.08105,-22 h 14.7899 l 5.92268,-1.54266 5.92267,-1.54266 4.29198,-2.70734 4.29198,-2.70734 2.82274,-4 2.82274,-4 4.58182,-10.5 4.58183,-10.5 0.61634,-2.11792 0.61635,-2.11792 -1.00054,-2.63162 -1.00054,-2.63162 -3.27492,-1.99672 -3.27493,-1.99672 -17.15574,-0.004 -17.15575,-0.004 -3.22425,6.75 -3.22426,6.75 -8.37,17.86193 -8.37,17.86193 V 482.11193 483 Z M 638.90088,504.35719 631.5,504.71438 614,504.10719 596.5,503.5 l -2.33466,-1.33049 -2.33466,-1.33049 -1.35091,-3.23318 -1.35091,-3.23319 0.88844,-3.93632 0.88844,-3.93633 13.39414,-28 13.39413,-28 5.0916,-10.75 5.0916,-10.75 H 647.9386 668 v 0.70351 0.70352 l -17,34.56408 -17,34.56409 v 1.25954 1.25954 l 32.00056,-0.27714 32.00056,-0.27714 -0.25056,0.65709 -0.25056,0.6571 -5,10.54456 -5,10.54456 -20.59912,0.0483 L 646.30176,504 Z M 715.75,504.34187 696,504.93849 v -0.97996 -0.97996 L 711.29319,470.73928 726.58638,438.5 733.54319,423.79071 740.5,409.08142 760.75,409.04071 781,409 v 0.42943 0.42943 l -4.38022,9.32057 -4.38022,9.32057 -12.47119,25.50268 -12.4712,25.50268 -5.28827,11.49732 -5.28828,11.49732 -0.61031,0.62263 -0.61031,0.62262 z m 48.75,0.0626 -10,0.14577 -2.25,-0.34467 -2.25,-0.34466 v -0.30493 -0.30493 l 15.07182,-31.87552 15.07181,-31.87552 5.742,-12 5.74199,-12 1.43619,-3.27043 1.43619,-3.27042 17.89074,0.27042 17.89075,0.27043 4.4996,7.5 4.49961,7.5 9.0701,14.5 9.07009,14.5 2.73904,4.98379 2.73904,4.98379 4.60445,-9.98379 4.60444,-9.98379 8.18271,-17.25 8.1827,-17.25 h 18.21488 18.21488 l -4.82533,10.25 -4.82532,10.25 -16.98201,35 -16.98201,35 -0.71157,2.25 -0.71157,2.25 h -16.77796 -16.77797 l -8.97272,-14.75 -8.97272,-14.75 -7.43193,-12.20949 -7.43192,-12.2095 -0.54514,-0.0405 L 812.40972,450 799.45486,476.9905 786.5,503.98099 l -6,0.13885 -6,0.13885 z m 184,0.4399 -34,0.0316 -3.22495,-0.80654 -3.22495,-0.80655 -2.51112,-1.64535 -2.51113,-1.64534 -1.64844,-2.51585 -1.64845,-2.51585 0.50718,-6.22023 0.50719,-6.22022 5.01926,-11 5.01926,-11 8.15491,-18 8.15491,-18 3.70316,-3.8364 3.70317,-3.8364 4.5591,-2.33371 4.5591,-2.33371 7.64874,-1.57989 L 958.91568,409 h 40.10955 40.10957 l -0.6428,2.02535 -0.6429,2.02535 -4.4817,9.46106 -4.4818,9.46106 -32.69278,0.26359 L 963.5,432.5 l -3.79883,7.25 -3.79882,7.25 H 987.95117 1020 v 0.57865 0.57866 l -4.145,8.92134 -4.1451,8.92135 h -32.41026 -32.41029 l -2.50882,5.48 -2.50883,5.48 1.32724,2.77 1.32725,2.77 31.16204,0.26414 31.16207,0.26414 -4.4252,9.46952 -4.4251,9.46952 v 0.87257 0.87256 l -7.75,0.55017 -7.75,0.55016 z"
     id="path11" />
  <path
     style="fill:#ffffff"
     d="M 131.5,570 H 131 v -0.5 -0.5 h 0.5 0.5 v 0.5 0.5 z m 4.14319,-1 h -0.97652 l 0.41666,-0.4137 0.41667,-0.41369 20.5,-4.05027 20.5,-4.05028 21.5,-3.50103 21.5,-3.50103 14,-1.98704 14,-1.98704 17.5,-2.06434 17.5,-2.06434 7.5,-0.94149 7.5,-0.94149 15.5,-1.54389 15.5,-1.54389 25.5,-2.436 25.5,-2.436 13,-1.04638 13,-1.04638 13.5,-1.01287 13.5,-1.01286 26,-1.49242 26,-1.49242 25.5,-0.9958 25.5,-0.9958 30,-1.2557 30,-1.2557 128,0.004 128,0.004 40,1.24253 40,1.24254 13.5,0.5339 13.5,0.53391 19.5,0.94188 19.5,0.94187 35,1.1485 35,1.14849 61.2515,-0.4648 61.2516,-0.46481 -0.2516,0.24689 -0.2515,0.24689 -11,3.60644 -11,3.60644 -17.0462,2.41682 -17.0463,2.41683 -19.4537,3.55119 -19.4538,3.55119 -8.5,1.51484 -8.5,1.51484 -15.2654,1.20138 -15.2655,1.20138 -50.23455,-2.73072 -50.23455,-2.73073 -31,-1.42816 -31,-1.42817 -25,-1.03904 -25,-1.03904 -39,-1.23207 -39,-1.23208 -125,-0.0103 -125,-0.0103 -33.5,1.26934 -33.5,1.26933 -38.5,1.97983 -38.5,1.97982 -15.5,0.99475 -15.5,0.99474 -14.5,1.02377 -14.5,1.02378 -18,1.43872 -18,1.43872 -12.5,1.08087 -12.5,1.08086 -33,3.46829 -33,3.46829 -19.44014,1.98201 L 136.61972,569 Z M 1150.2008,516.94789 989.5,516.89579 l 5.06305,-1.94804 5.06305,-1.94805 2.5877,-2.74985 2.5876,-2.74985 22.7829,-46.5 22.7828,-46.5 3.7656,-5.62026 3.7656,-5.62025 4.551,-4.00597 4.551,-4.00596 6.7499,-3.5386 6.7498,-3.53859 6.1443,-1.58519 6.1444,-1.58518 h 156.6009 156.601 l -4.0688,7.75 -4.0688,7.75 -24.1322,47 -24.1321,47 -6.7066,6.6702 -6.7065,6.67019 -7.3378,3.48283 -7.3378,3.48283 -5.2992,1.09698 -5.2992,1.09697 z m -37,-19.01835 47.7008,0.0705 5.2992,-1.10508 5.2992,-1.10509 6.1866,-2.91573 6.1866,-2.91573 4.3134,-4.825 4.3134,-4.825 9.6431,-20.40419 9.643,-20.40418 -0.452,-0.75 -0.4521,-0.75 h -35.821 -35.821 l -3.9781,9.25 -3.9781,9.25 14.3342,0.2766 14.3342,0.27659 -2.6205,5.34311 -2.6205,5.3431 -2.7599,1.6303 -2.7599,1.6303 H 1127.5957 1106 l -2,-2 -2,-2 0.07,-1.75 0.07,-1.75 8.6803,-16.97188 8.6803,-16.97187 5.9245,-3.02813 5.9245,-3.02812 22.3255,-0.31874 L 1176,422.86252 V 424.93126 427 h 19.4858 19.4859 l 6.3718,-13.25 6.3719,-13.25 -0.7035,-0.7958 -0.7035,-0.79581 -57.9042,0.30362 -57.9042,0.30362 -8,2.71812 -8,2.71812 -5.1201,3.46318 -5.1202,3.46317 -3.5234,4.81089 -3.5235,4.81089 -12.6619,26 -12.662,26 -1.0252,4.74024 -1.0252,4.74025 1.1038,3.34481 1.1039,3.34481 2.7567,2.64105 2.7567,2.64105 3.9702,1.45343 3.9702,1.45344 z M 1251.5018,498 h 23.5019 l 17.7416,-35.5 17.7416,-35.5 h 21.3178 21.3179 l 6.318,-13.25 6.318,-13.25 -0.6865,-0.75725 -0.6866,-0.75726 -65.7153,0.25726 -65.7153,0.25725 -6.0408,12.85331 -6.0408,12.85332 0.6458,0.64668 0.6458,0.64669 h 20.2945 20.2946 L 1245.377,461.24444 1228,495.98889 V 496.99444 498 Z"
     id="path9" />
</svg>
