<?xml version="1.0" encoding="UTF-8" standalone="no"?>
<svg
   width="716"
   height="544"
   version="1.1"
   id="svg35"
   xmlns="http://www.w3.org/2000/svg">
  <path
     fill="#121111"
     d="M532 105v60h132c-2.25 12.38-2.25 12.38-3.59 17.67l-.88 3.52-.9 3.56-.89 3.52a1337 1337 0 0 1-10.66 39.57 533.06 533.06 0 0 0-8.42 32.47C638 268 638 268 637 269c-1.37.1-2.74.15-4.1.16l-2.68.03c-.98 0-1.96 0-2.97.02l-3.16.03a4889.4 4889.4 0 0 1-16.4.13l-23.25.2L532 270v120l-23 12c-4.07 2.13-8.14 4.27-12.19 6.44l-2.76 1.44c-5.88 3.16-9.25 6.07-12.68 11.87C480 424 480 424 478 425a96 96 0 0 1-4.95.14l-3.01.06c-2.09.03-4.17.05-6.26.05l-3.04.08-2.75.03c-3.58.77-5.89 2.3-8.92 4.3-3.21 2.08-6.62 3.73-10.06 5.41l-2.23 1.11-4.68 2.32c-4.07 2-8.13 4.03-12.19 6.05l-2.39 1.19a920.57 920.57 0 0 0-23.26 12.06c-4.55 2.42-9.13 4.8-13.7 7.2l-2.71 1.42-2.53 1.33-2.24 1.17L371 470l-2.1 1.14c-3.04 1.38-4.7.77-7.9-.14-3.67-1.67-7.2-3.59-10.75-5.5a2233.4 2233.4 0 0 0-7.17-3.78l-2.04-1.07c-12.03-6.29-24.22-12.27-36.38-18.3a9836.37 9836.37 0 0 1-12.48-6.22c-4.73-2.35-9.36-4.8-13.95-7.43-4.09-2.24-7.18-3.44-11.92-3.43l-3.42-.06-3.45.04c-2.32 0-4.63-.02-6.94-.05l-3.06.02C247 425 247 425 245 423c-.2-1.41-.36-2.83-.5-4.25-.62-2.86-1.03-4.35-3.3-6.25l-2.33-1.31-2.73-1.53a771.05 771.05 0 0 0-18.51-9.41A8215.2 8215.2 0 0 1 199 391l-1-121-150-1c.63-5.7 1.16-10.24 2.64-15.6l.99-3.64 1.06-3.82 2.19-8.06.55-2.03a774.18 774.18 0 0 0 4.7-18.41 606.42 606.42 0 0 1 6.68-24.82 617.54 617.54 0 0 0 5.63-20.85C73.9 166.1 73.9 166.1 75 165c1.6-.1 3.22-.12 4.83-.12h10.33l9.98.02h10.42l19.74.03 24.67.02L199 165v-60c37.74-19.7 37.74-19.7 56-26l3.23-1.13A360.19 360.19 0 0 1 287 69.44l2.33-.6C373.18 47.88 457.26 63.9 532 105Z"
     id="path1" />
  <path
     fill="#ffffff"
     d="M360.63 47.81c61 1.4 126.87 6.54 178.21 42.95 13.49 6.41 6.42 22.16 8.16 33.87V155h132c-9.96 41.5-21.6 82.6-32 124H546v121c-58.69 30.3-117.69 60-176.43 90.2-23.79-2.33-44.1-20.32-66.31-29.18C263.9 440.88 224.58 420.69 185 401V279H33c9.33-41.65 20.94-82.78 32-124h119V98c53.06-31.9 114.55-50.32 176.63-50.19ZM331.56 61.7C284.72 65.5 239.58 81.72 199 105v60H75c-11.19 32.18-17.2 70.87-27.08 103.51 64.05.27 100.05.66 150.08 1.49l1 121c19.92 8.55 36.99 20.75 47.98 34.17 26.78-3.61 52.43 17.36 75.95 26.33 23.74 14.27 37.45 33.46 61.13 10.62 23.7-9.76 68.52-34.3 93.54-37.37 19.94-1.65 29.35-25.73 50.67-30.28 16.72-2.58 3.16-15.8 3.73-27.97V270l105-1c9.33-34.54 19.95-68.98 27-104H532v-60c-60.53-34.26-130.83-52.92-200.43-43.3Z"
     id="path2" />
  <path
     fill="#f8f8f8"
     d="M197 270h2l1 121 23 11c19.94 10.09 19.94 10.09 22 14 .4 2.32.73 4.66 1 7 1.02 1.25 1.02 1.25 3.14 1.01l2.84-.12 3.23-.03c2.2-.03 4.38-.1 6.58-.22 11.85.02 20.75 5.92 30.85 11.53 5.43 2.95 10.96 5.7 16.49 8.45a2978.99 2978.99 0 0 1 13.8 6.88l12.16 6.07 18.04 8.99c1.79.9 3.56 1.81 5.32 2.77 3.57 2.1 3.57 2.1 7.56 2.36 3.15-1.1 6.09-2.62 9.05-4.13l2.11-1.06c6.2-3.14 12.35-6.38 18.48-9.65 9.9-5.26 19.98-10.18 30.03-15.16a10478.51 10478.51 0 0 0 20.25-10.06l2.07-1.02c2.69-1.34 4.86-2.47 7-4.61 2.3-.27 2.3-.27 5.12-.3l3.09-.08 6.45-.1 3.09-.08 2.83-.04c2.86-.47 3.67-1.14 5.42-3.4l1.63-2.81c6.12-8.23 17.02-12.27 26-16.81a3923.06 3923.06 0 0 0 11.06-5.64c2.41-1.27 4.76-2.58 7.1-3.96C530 390 530 390 532 390V270h2v2l1.63.69c6.3 3.49 6.3 3.49 8.37 6.31.88 3.86.76 7.64.68 11.58v3.55c0 3.87-.05 7.74-.1 11.6l-.02 8.06c-.02 6.34-.07 12.68-.13 19.02-.06 7.21-.1 14.43-.13 21.65-.06 14.85-.17 29.7-.3 44.54l-2.04 1.02-9.34 4.65-3.21 1.6a958 958 0 0 0-23.53 12.18c-6.9 3.64-13.9 7.08-20.88 10.55a31585.95 31585.95 0 0 0-23.5 11.71c-9.36 4.66-18.7 9.36-27.93 14.25a1334.1 1334.1 0 0 1-31.94 16.23l-11.4 5.67-2.73 1.35a284.34 284.34 0 0 0-17.93 9.74c-3.17 1.3-4.3.95-7.57.05-2.14-.94-4.24-1.94-6.32-2.98l-1.87-.93a11957.74 11957.74 0 0 1-41.7-20.93l-2.03-1.02c-7.85-3.94-15.66-7.96-23.43-12.07-8.53-4.51-17.13-8.87-25.77-13.17-24.11-13.7-51.21-21.7-73.88-37.9 2.75-17.11-16.49-126.85 10-127Z"
     id="path3" />
  <path
     fill="#F6F6F6"
     d="m437 57 2.91.62A338.62 338.62 0 0 1 510 81l2.52 1.14C539.37 94.37 539.37 94.37 544 99c.13 1.76.18 3.52.2 5.28l.07 3.42.14 15.5c.01 2.74.05 5.47.1 8.2.07 3.93.1 7.85.11 11.78l.09 3.7c-.01 3.16-.06 6.03-.71 9.12-2.9 2.66-2.9 2.66-6 4l-2.25 2.25L534 164h-2v-59l-5-2c-1.7-.87-3.4-1.77-5.08-2.69-57.97-31.2-124.73-45.6-190.35-37.62-2.66.32-5.33.6-8 .86C289.52 67.23 254.69 77.75 224 93l-2.91 1.44a1543.3 1543.3 0 0 0-17.05 8.58C202 104 202 104 199 105v60h-2v-2l-1.63-.69c-6.5-3.6-6.5-3.6-8.37-6.31-.86-4.39-.7-8.72-.59-13.18l.03-3.88c.02-3.39.08-6.78.15-10.17.06-3.47.09-6.93.12-10.4.06-6.79.16-13.58.29-20.37 43-22.8 43-22.8 64.53-28.96a95.1 95.1 0 0 0 7.29-2.49C313.45 45.7 380.31 44.53 437 57Z"
     id="path4" />
  <path
     fill="#ffffff"
     d="M546 98c2.3.54.36 5.3 1 7.5V155h132c-9.83 41.55-21.5 82.62-32 124-32.77.63-65.54 1.48-98.3 1.82-6.1-.22-14.43-4.53-14.7-11.17 1.35-1.54 5.54-.26 7.98-.73L637 268c4.31-16.69 7.92-33.57 13.26-49.97 4.55-17.68 8.58-35.5 13.74-53.03H532c3.3-5.48 11.46-7.91 14-11.88V98Z"
     id="path5" />
  <path
     fill="#ffffff"
     d="M359.06 71.63h2.42c26.74.08 52.66 3.54 78.52 10.37l6.07 1.54c9.66 2.5 18.83 5.33 27.93 9.46l6.78 2.85c7.05 2.94 14.08 5.93 21.1 8.96l1.96.84C511 108.78 511 108.78 514 111c.6 2.37.6 2.37.57 5.2v3.22l-.08 3.47-.02 3.55c-.03 3.75-.1 7.5-.16 11.25l-.07 7.62c-.05 6.23-.13 12.46-.24 18.69h-2l-.24-1.89-1.13-8.74-.42-3.19c-.87-6.7-.87-6.7-1.85-13.4A113.94 113.94 0 0 1 507 115l-2.54-.78a79.19 79.19 0 0 1-8.81-3.78c-68.13-33.64-146.96-41.2-218.79-16.86-17.91 6.18-34.9 13.94-51.86 22.42l-1 48h-7v-52c21.04-11.69 21.04-11.69 29.06-15.25l2.81-1.26A237.6 237.6 0 0 1 274 86l2.66-.85c16.46-5.15 32.89-8.19 49.91-10.63 3.11-.47 6.19-1.04 9.28-1.63 7.7-1.3 15.42-1.29 23.21-1.27Z"
     id="path6" />
  <path
     fill="#E5E4E3"
     d="M360.57 84.81c3.03 0 6.05-.02 9.08-.03 16.32-.05 32 1.23 47.97 4.6l3.22.66a1082.85 1082.85 0 0 1 11.64 2.5A124.02 124.02 0 0 1 458 101l3.63 1.65c3.13 1.44 6.25 2.89 9.37 4.35v2c-1.95 1.6-1.95 1.6-4.69 3.5-3.32 2.34-6.6 4.7-9.8 7.21l-1.74 1.38c-1.12.88-2.24 1.77-3.35 2.67-5.18 4.07-5.18 4.07-8.42 4.24l-2-2c.03-3.38.57-6.64 1-10h-12c.42-5.3 2.48-9.23 4.94-13.83 1.2-2.07 1.2-2.07 1.06-4.17-3.52-1.6-6.14-2.55-10-2-2.72 2.23-2.72 2.23-5.31 5.06-4.83 4.72-4.83 4.72-7.83 5.49A24.2 24.2 0 0 1 407 105l-5.5-1.56L397 102l.94-4.25.52-2.4c.49-2.12 1.01-4.23 1.54-6.35h-13l-6 19h-5a290.3 290.3 0 0 1 3-21c-4.77-.1-9.32-.03-14 1-1.93 1.98-2.8 3.74-3.91 6.25L360 96c-3.81.5-3.81.5-7 0l-3-7-15-1c.65 4.67.65 4.67 1.32 9.33.53 3.92.78 7.71.68 11.67l-5-1-1.44-5.06-.8-2.85c-.82-3.32-1.28-6.71-1.76-10.09l-16 3v10l-7 1-3-7-12 1 1-3c2.31-.95 2.31-.95 5.36-1.75l3.38-.9 3.57-.91 3.44-.92c17.94-4.7 35.36-5.7 53.82-5.7Z"
     id="path7" />
  <path
     fill="#252525"
     d="M185 279h2l1 120c55.16 27.84 110.08 56.15 165.24 83.98l3.06 1.58 2.84 1.42 2.49 1.26c6.04 1.77 11.55-2.23 16.72-4.92C463.8 438.24 493.32 423.52 544 399V280h2v120c-12.05 6.34-24.1 12.6-36.3 18.63a841.87 841.87 0 0 0-19.76 10.15c-39.51 20.84-80.22 40.99-120.37 61.42-5.11 1.6-9.32-.32-13.9-2.63-80.98-39.92 30.6 14.08-154.67-78.57l-16-8Z"
     id="path8" />
  <path
     fill="#999999"
     d="M485.18 111.05c4 1.35 6.5 3.36 9.82 5.95-.29 3.05-.98 3.98-3.27 6.09l-3.1 2.28-1.72 1.28a14064.56 14064.56 0 0 0-15.54 11.4l-2.49 1.84A328.87 328.87 0 0 0 451 154a24511.44 24511.44 0 0 1-8.68 7.37c-4.51 3.86-7.2 6.13-13.37 5.94-1.95-.31-1.95-.31-4.51-1.87-1.44-2.44-1.44-2.44-1.75-5.69 1.98-5.66 5.65-8.14 10.31-11.75l1.82-1.41c4.28-3.33 8.6-6.6 12.92-9.88 2.93-2.22 5.84-4.46 8.76-6.7 2.8-2.15 5.61-4.28 8.42-6.42 2.1-1.61 4.19-3.25 6.27-4.89l4-3.08 1.81-1.46c2.88-2.18 4.53-3.17 8.18-3.1Z"
     id="path9" />
  <path
     fill="#232323"
     d="M360.63 47.81c64.53-.91 128.47 18.48 184.66 49.13 1.5 9.56 1.1 19.46.71 29.45V155c-3.21.12-1.39-50.59-1.76-53.5-5.45-6.04-17.16-10.87-30.79-17.55C439.26 48.71 352.22 39.9 273 62.4c-29.52 9.1-58.23 21-85.19 36.15-1.96 6.95-.28 14.72-.81 22.07V155c-4.58-4.67-2.82-13.32-2.88-19.82l-.18-37.12c51.83-31.44 114.89-51.04 176.69-50.25Z"
     id="path10" />
  <path
     fill="#151514"
     d="M282 197c3.37-.09 6.75-.14 10.13-.19l2.88-.07c5.4-.06 9.37.1 13.99 3.26 2.87 4.3 2.58 7.94 2 13-1.98 7.4-4.98 12.39-11.48 16.62-4.87 1.91-9.22 1.7-14.4 1.57l-2.95-.04L275 231c.72-7.32 2.37-14.35 4.06-21.5l.86-3.65L282 197Z"
     id="path11" />
  <path
     fill="#ffffff"
     d="M220 271h2c2.7 6.18 3.42 11.11 3.34 17.81v2.87a5389.64 5389.64 0 0 0-.06 15.8c-.01 5.69-.04 11.36-.07 17.03l-.06 17.4c-.04 11.36-.09 22.73-.15 34.09l1.83.4 2.42.53 2.4.53c3.34.77 6.62 1.7 9.91 2.67l3.7 1.07 2.74.8c-2.18 2.63-3.42 3.88-6.81 4.6l-3.19.02-3.13.1c-3.93-.73-6.57-1.95-10.11-3.77l-3.27-1.66L219 380a34645.19 34645.19 0 0 1-.08-52.7 10397.75 10397.75 0 0 1-.03-22.3c-.02-11.39.14-22.66 1.11-34Z"
     id="path12" />
  <path
     fill="#ffffff"
     d="M508 271h5a68993.99 68993.99 0 0 1 .57 44.28c.29 21.58.52 43.14.43 64.72l-5.71 2.45-3.22 1.37c-4.83 1.85-9.04 2.86-14.07 1.18.07-1.8.07-1.8 1-4a55.35 55.35 0 0 1 6.94-3.25l1.96-.81c4.76-1.94 4.76-1.94 7.1-1.94V271Z"
     id="path13" />
  <path
     fill="#BEBABA"
     d="m440 98 2.13.56c2.84.64 2.84.64 5.4-.31 5.29-.38 9.16 1.92 13.85 4.19l2.8 1.31c2.28 1.07 4.55 2.15 6.82 3.25v2c-1.95 1.6-1.95 1.6-4.69 3.5-3.32 2.34-6.6 4.7-9.8 7.21l-1.74 1.38c-1.12.88-2.24 1.77-3.35 2.67-5.18 4.07-5.18 4.07-8.42 4.24l-2-2c.03-3.38.57-6.64 1-10h-12c.48-6.03 3.2-10.77 6-16l2 1 2-3Z"
     id="path14" />
  <path
     fill="#C6C5C5"
     d="M340.25 86.38c.95.05 1.9.1 2.87.17 2.3.14 4.59.29 6.88.45v1h-15c.65 4.67.65 4.67 1.32 9.33.53 3.92.78 7.71.68 11.67l-5-1-1.44-5.06-.8-2.85c-.82-3.32-1.28-6.71-1.76-10.09l-16 3v10l-7 1-3-7-12 1 1-3c2.31-.95 2.31-.95 5.36-1.75l3.38-.9 3.57-.91 3.44-.92c11.32-2.97 21.78-4.98 33.5-4.14Z"
     id="path15" />
  <path
     fill="#EDECEC"
     d="M345.68 84.77h2.79l2.98.03 3.08.01 9.72.06 6.6.03c5.38.02 10.76.06 16.15.1v1l-1.94.06c-2.92.1-5.83.27-8.75.44l-3.05.09c-5.58.22-5.58.22-9.95 3.27-1.3 2.16-1.3 2.16-2.24 4.4L360 96c-3.81.5-3.81.5-7 0l-3-9h-13c3.72-1.86 4.8-2.25 8.68-2.23Z"
     id="path16" />
  <path
     fill="#9A9899"
     d="M321 89v2l-9 2v10l-7 1-3-7-12 1 1-3c2.44-1 2.44-1 5.64-1.86l3.5-.94 3.67-.95 3.65-1c9.8-2.6 9.8-2.6 13.54-1.25Z"
     id="path17" />
  <path
     fill="#F4F3F4"
     d="m382.5 85.9 3.06.04 3.07.02L391 86l-4 1-.55 2.05A596.48 596.48 0 0 1 381 108h-5c2.2-21.93 2.2-21.93 6.5-22.1Z"
     id="path18" />
  <path
     fill="#8D8B8A"
     d="m282 99 3 7.25.87 2.07c1.42 3.5 2.13 5.85 2.13 9.68-1.77-.07-1.77-.07-4-1a61.61 61.61 0 0 1-3.75-6.94l-.96-1.96c-2.29-4.78-2.29-4.78-2.29-7.1 3-2 3-2 5-2Z"
     id="path19" />
  <path
     fill="#C4C2C3"
     d="m354.5 88.9 3.06.04 3.07.02L363 89c-1.88 5.88-1.88 5.88-3 7-2.33.04-4.67.04-7 0l-2-6c1-1 1-1 3.5-1.1Z"
     id="path20" />
  <path
     fill="#A8A6A6"
     d="M258 111h2c1.76 2.3 1.76 2.3 3.69 5.31l1.95 3L267 122l-1 3c-2.88-.34-3.82-.78-5.7-3.07l-1.55-2.5-1.58-2.5L256 115l2-4Z"
     id="path21" />
  <path
     fill="#DAD8D8"
     d="m435.88 93.75 2.64.6C446.4 96.4 446.4 96.4 449 99c-4.54 1.14-4.54 1.14-7.13.38L440 99c-1.77 1.35-1.77 1.35-3 3l-.21-1.9c-.59-2.3-.59-2.3-2.86-3.15l-2.5-.7-2.5-.73L427 95c3.3-2.04 5.12-2.11 8.88-1.25Z"
     id="path22" />
  <path
     fill="#A9A9AA"
     d="M321 89v2l-1.9.3-2.48.45-2.46.42c-2.34.65-2.34.65-3.45 2.9L310 97l-2-3-3-2c10.63-4.8 10.63-4.8 16-3Z"
     id="path23" />
  <path
     fill="#C8C8C9"
     d="m334 96 2 1c.41 2.72.41 2.72.63 6.06l.22 3.35.15 2.59-5-1v-7h1l1-5Z"
     id="path24" />
  <path
     fill="#A09FA1"
     d="M304 93c-4.32 3.66-8.35 5-14 5l1-3c4.44-1.4 8.32-2.3 13-2Z"
     id="path25" />
  <path
     fill="#D9D8D7"
     d="m399 86 2 1-1 3-13-2c4.74-2.37 6.81-2.25 12-2Z"
     id="path26" />
  <path
     fill="#DFDEDE"
     d="m363 86 2 2a36.77 36.77 0 0 1-14 2l-1-2c2.12-.39 4.25-.76 6.38-1.13 1.77-.3 1.77-.3 3.58-.63L363 86Z"
     id="path27" />
  <path
     fill="#C5C5C6"
     d="m439 94-3 1v2l-9-2c4.99-2.5 6.67-1.89 12-1Z"
     id="path28" />
  <path
     fill="#ffffff"
     d="M220 271h2c1.37 4.52.47 7.59-1 12h-1v-12Z"
     id="path29" />
  <path
     fill="#959495"
     d="M285 112h2l1 6-4-1 1-5Z"
     id="path30" />
  <path
     fill="#ffffff"
     d="m487 143 4 1-1 3h-5l2-4Z"
     id="path31" />
  <path
     fill="#D4D4D5"
     d="m335 102 2 1v6h-4a84.76 84.76 0 0 1 2-7Z"
     id="path32" />
  <path
     d="m96.78 231.47 4.9-23.12h17.65q4.44 0 6.15 1.14 1.82 1.14 1.82 4.1 0 1.7-.57 4.56l-.22.9q-.8 4-1.49 6.16-.57 2.05-1.7 3.53-1.14 1.37-3.3 2.05-2.06.68-5.59.68zM65 273.96h22.78l4.78-22.67h17.66q3.87 0 5.7 1.82 1.93 1.71 1.93 5.01 0 1.71-.57 3.88l-2.5 11.96h22.77l3.65-17.2q.45-2.28.45-4.1 0-5.13-3.3-7.98-3.3-2.84-9.34-3.07l.23-.91q6.15-1.37 10.02-3.65 3.87-2.27 5.92-5.35 2.17-3.19 3.2-6.83 1.13-3.65 2.61-10.48 1.14-5.47 1.14-9.57 0-9.34-5.92-12.64-5.92-3.42-19.14-3.65H83.11Zm122.33-66.75h38.84l3.87-18.68h-61.62l-18.11 85.43h62.42l3.98-18.68h-39.63l3.53-16.63h36.44l3.3-15.83h-36.44zm38.84 66.75h46.35q17.43 0 26.09-8.09 8.77-8.2 12.53-26.31l3.87-17.88q1.36-6.72 1.36-11.85 0-11.39-6.94-16.29-6.95-5-21.87-5h-43.28zm36.67-65.6h19.93q5.02 0 7.18 1.59 2.28 1.48 2.28 5.69 0 2.4-.69 6.04l-3.87 17.88q-1.48 7.06-5 10.82-3.54 3.76-9.58 3.76h-19.93zm93.17-19.83h-22.78l-18.1 85.43h58.42l4.22-19.82h-35.65zm67.09 0h-22.78l-18.11 85.43h22.78zm31.2 19.82h.92l10.25 65.6h38.84l18.1-85.42h-22.77l-12.53 65.6h-.91l-10.6-65.6h-38.5L419 273.96h22.78zm101.26-1.14h38.84l3.87-18.68h-61.61l-18.11 85.43h62.41l3.99-18.68H545.3l3.53-16.63h36.45l3.3-15.83h-36.44Z"
     aria-label="REDLINE"
     style="font-style:italic;font-weight:700;font-size:113.899px;font-family:Eurostile;fill:#fff;stroke-width:.85723"
     transform="scale(1.0707545 .93392093)"
     id="path33" />
  <path
     d="M371 300.2q1.32-6.67 1.32-11.6 0-7.34-2.8-11.47-2.8-4.27-7.86-6.14-5.07-1.86-11.34-2.26-6.26-.4-16.8-.4-12.13 0-20.93 1.46-8.67 1.34-15.6 5.34-6.8 4-11.73 11.6-4.8 7.46-7.33 19.6l-5.47 25.86q-1.6 7.87-1.6 13.6 0 7.47 2.53 12.27 2.67 4.8 7.87 7.33 5.2 2.54 12.53 3.6 7.47.94 18.13.94 14.14 0 22.8-1.6 8.67-1.6 14.27-5.74 5.73-4.13 9.2-11.73 3.6-7.73 6.4-20.8l3.73-17.47h-45.46l-3.87 18.54h18.4q-1.2 5.33-2.67 8.66-1.46 3.2-3.73 5.07-2.27 1.73-5.73 2.53-3.34.67-8.67.67-9.33 0-13.2-2-3.87-2-3.87-8.67 0-3.6 1.2-8.93l3.47-16.27q1.6-7.2 2.93-10.93 1.34-3.73 3.6-6.27 2.4-2.53 6.67-3.6 4.27-1.2 11.47-1.2 3.86 0 6.26.27 2.4.13 4.4.8 2.14.67 3.34 2.27 1.2 1.6 1.2 4.4v1.06q-.14.8-.14 1.2zm59.06-7.87h26.93l4.93-23.2h-79.2l-4.93 23.2h25.6l-16.27 76.8h26.67z"
     aria-label="GT"
     style="font-style:italic;font-weight:700;font-size:133.333px;font-family:Eurostile;fill:#ffffff"
     id="path34" />
  <path
     d="M293.62 389.06v7.02h-27.9v-28.04h8.52v21.02zm36.02-21.02v6.4H306.9v4.78h21.23v5.55H306.9v4.96h22.74v6.35h-31.27v-28.04Zm13.58 28.04h-9.5l15.63-28.04h11.52l15.3 28.04h-9.42l-2.64-5.09h-18.12zm5.75-10.89H361l-6-11.1zm68.26-4.92.04 5.89q0 5.17-1.8 7.69-1.77 2.48-6.94 2.48l-4.45.04-5.09-.04-4.41-.04q-4.84 0-7.7-.63-2.81-.68-4.5-2.9-1.63-2.23-1.63-6.81l-.08-3.53q0-8.2 2.01-11.35 2.02-3.15 9.5-3.15l6.39-.13 2.35-.04 5.72.12q5.55 0 8.03 1.94 2.52 1.89 2.52 7.35v.5h-8.36q0-1-.3-1.72-.3-.71-1.1-1-.79-.3-1.55-.34-.71-.09-2.1-.09l-9.88-.04q-3.02 0-3.82 1.47-.8 1.48-.8 4.96v2.61q0 2.9.8 4.33.8 1.39 2.27 1.6 1.47.16 2.27.2.8.05 2.02.05l7.6.04q2.15 0 3.37-.71 1.26-.72 1.26-2.7l-.04-.8h-10.8v-5.25zm42.7 3.79v1.64q0 6.55-3.44 8.65-3.4 2.06-10.55 2.06l-6.98-.04q-5.55 0-8.49-.59-2.94-.59-4.75-2.98-1.8-2.4-1.8-7.53v-17.19h8.53v14.67q0 4.2 1 5.47 1.01 1.26 5.1 1.26l3.82.04 3.53-.04q3.49 0 4.45-1.1 1.01-1.09 1.01-4.4v-15.9h8.57zm38.59-16.02v6.4h-22.74v4.78h21.23v5.55h-21.23v4.96h22.74v6.35h-31.27v-28.04z"
     aria-label="LEAGUE"
     style="font-style:italic;font-size:42.0306px;font-family:Eurostile Extended;fill:#fff;stroke-width:.985091"
     transform="scale(.95256457 1.0497976)"
     id="path35" />
</svg>
